<svg width="41" height="40" viewBox="0 0 41 40" fill="none" xmlns="http://www.w3.org/2000/svg">
<path d="M35.9794 32.351H12.3656C10.8758 32.351 9.64665 31.1254 9.64665 29.6398V12.1839C9.64665 10.6983 10.8758 9.47266 12.3656 9.47266H35.9794C37.4692 9.47266 38.6984 10.6983 38.6984 12.1839V29.6398C38.6984 31.1254 37.4692 32.351 35.9794 32.351Z" fill="#0D9488"/>
<path d="M33.2236 28.2251H15.1222C14.0793 28.2251 13.2227 27.3708 13.2227 26.3309V15.4488C13.2227 14.4089 14.0793 13.5547 15.1222 13.5547H33.2236C34.2665 13.5547 35.1232 14.4089 35.1232 15.4488V26.3309C35.1232 27.3708 34.2665 28.2251 33.2236 28.2251Z" fill="white"/>
<path d="M22.9802 17.3429L27.4869 19.757C28.3436 20.2399 28.3436 21.4655 27.4497 21.9112L22.9429 24.1024C22.1235 24.511 21.1924 23.9167 21.1924 23.0254V18.42C21.1924 17.4915 22.1608 16.9344 22.9802 17.3429Z" fill="#0D9488"/>
<path d="M6.59218 15.9714L1.1543 17.4942L5.959 6.20353L17.4679 1.00391L16.4996 6.20353L13.1474 12.4802L6.59218 15.9714Z" fill="#0D9488"/>
<path d="M9.98116 19.7593C9.98116 19.7593 11.9552 13.7797 19.6651 9.65716L16.4992 6.20312C16.4992 6.20312 8.56582 9.24862 6.5918 15.971L9.98116 19.7593Z" fill="#096961"/>
<path d="M20.448 3.60372L19.6658 4.01226L17.3193 1.96955L17.4683 1.00391L20.448 3.60372Z" fill="#E6821F"/>
<path d="M23.5758 4.79396L22.384 5.42534L21.0804 7.28235L19.665 4.01401L20.4472 3.60547L23.5758 4.79396Z" fill="#FDBA72"/>
<path d="M31.2117 38.9988H17.9894C17.0955 38.9988 16.3506 38.256 16.3506 37.3646C16.3506 36.4733 17.0955 35.7305 17.9894 35.7305H31.2117C32.1055 35.7305 32.8505 36.4733 32.8505 37.3646C32.8505 38.256 32.1055 38.9988 31.2117 38.9988Z" fill="#0D9488"/>
</svg>
